<?xml version="1.0" standalone="no"?>
<!DOCTYPE svg PUBLIC "-//W3C//DTD SVG 20010904//EN"
 "http://www.w3.org/TR/2001/REC-SVG-20010904/DTD/svg10.dtd">
<svg version="1.0" xmlns="http://www.w3.org/2000/svg"
 width="2396.000000pt" height="1530.000000pt" viewBox="0 0 2396.000000 1530.000000"
 preserveAspectRatio="xMidYMid meet">

<g transform="translate(0.000000,1530.000000) scale(0.100000,-0.100000)"
fill="#000000" stroke="none">
<path d="M10 7650 l0 -7640 11975 0 11975 0 0 7640 0 7640 -11975 0 -11975 0
0 -7640z m23930 0 l0 -7620 -11955 0 -11955 0 0 7620 0 7620 11955 0 11955 0
0 -7620z"/>
<path d="M9273 8922 c-55 -23 -81 -48 -94 -91 -13 -45 -32 -634 -23 -758 9
-142 -15 -179 -224 -337 -35 -27 -60 -51 -57 -54 3 -3 151 -117 328 -253 l322
-246 7 176 c5 97 14 199 21 226 11 43 16 50 35 48 37 -4 352 -154 862 -411
303 -152 489 -240 497 -235 9 6 335 367 410 455 13 15 -30 50 -484 390 -1208
907 -1445 1076 -1538 1101 -11 3 -39 -2 -62 -11z"/>
<path d="M14745 8881 c-136 -65 -377 -236 -1200 -856 -659 -496 -709 -534
-713 -546 -15 -38 373 -517 407 -504 8 3 320 163 693 355 374 193 681 350 683
350 3 0 5 -74 5 -164 0 -172 11 -261 35 -285 20 -20 53 -4 181 91 157 117 454
378 454 398 0 5 -16 14 -35 20 -48 16 -151 94 -174 131 -32 53 -41 137 -56
526 -17 450 -20 467 -95 497 -60 24 -116 20 -185 -13z"/>
<path d="M12025 6919 c-63 -70 -232 -336 -454 -715 -116 -199 -211 -364 -211
-367 0 -10 199 -375 253 -465 29 -48 60 -88 70 -90 29 -6 139 51 245 127 l99
70 6 573 c8 636 20 858 47 858 28 0 39 -252 40 -885 l1 -540 187 -132 187
-131 49 101 c26 56 93 195 148 310 l100 207 -53 93 c-409 710 -612 1027 -659
1027 -10 0 -35 -19 -55 -41z"/>
</g>
</svg>
